<?xml version="1.0" standalone="no"?>
<!DOCTYPE svg PUBLIC "-//W3C//DTD SVG 20010904//EN"
 "http://www.w3.org/TR/2001/REC-SVG-20010904/DTD/svg10.dtd">
<svg version="1.0" xmlns="http://www.w3.org/2000/svg"
 width="260.000000pt" height="260.000000pt" viewBox="0 0 260.000000 260.000000"
 preserveAspectRatio="xMidYMid meet">
<metadata>
Created by potrace 1.14, written by Peter Selinger 2001-2017
</metadata>
<g transform="translate(0.000000,260.000000) scale(0.100000,-0.100000)"
fill="#000000" stroke="none">
<path d="M167 2481 l-58 -6 1 -1189 c0 -653 3 -1192 6 -1197 6 -10 2225 -12
2262 -3 l22 6 0 504 0 504 23 4 c12 3 31 7 42 8 18 3 20 11 20 93 l0 90 -215
0 -215 0 -3 -89 c-3 -93 4 -111 39 -101 9 3 24 3 33 -1 14 -5 16 -31 16 -215
l0 -209 -707 2 -708 3 -5 170 -5 170 -29 3 c-16 2 -32 -2 -37 -10 -11 -17 -11
-369 -1 -386 7 -10 171 -12 788 -10 l779 3 3 264 c1 175 6 269 13 278 14 16
61 17 77 1 17 -17 17 -1009 0 -1026 -9 -9 -256 -12 -1052 -12 -573 0 -1047 4
-1054 8 -10 7 -12 243 -10 1148 l3 1139 1049 3 c772 1 1052 -1 1063 -9 11 -10
13 -85 11 -428 l-3 -416 -45 0 -45 0 -3 388 -2 387 -968 -2 -967 -3 1 -35 c1
-19 2 -468 3 -997 l1 -963 965 0 966 0 -3 93 -3 92 -830 5 -830 5 0 780 0 780
133 3 132 3 0 -35 0 -35 -87 -3 -88 -3 -2 -449 c-2 -330 1 -453 9 -464 9 -10
28 -12 79 -8 99 9 99 9 93 -170 -3 -79 -2 -153 1 -164 6 -20 18 -20 561 -20
l555 0 -3 27 -3 28 -515 5 -515 5 -3 168 c-2 123 -6 167 -15 168 -6 1 -43 2
-80 3 -48 1 -70 5 -77 16 -11 16 -14 740 -4 778 5 18 13 22 49 22 l43 0 7
-159 c4 -87 6 -248 4 -358 l-4 -198 65 -3 c120 -4 109 13 112 -185 l3 -172
515 0 c508 0 515 0 515 20 0 20 -8 20 -464 23 -317 1 -468 6 -477 13 -10 8
-14 55 -16 178 l-3 166 -85 5 -85 5 -3 254 c-2 176 1 258 9 267 8 10 49 14
153 16 l141 3 0 160 0 160 -365 0 -365 0 0 -840 0 -840 830 -5 830 -5 0 -35 0
-35 -874 -3 c-637 -1 -877 1 -887 9 -21 17 -21 1851 0 1868 10 8 250 10 887 9
l874 -3 0 -330 0 -330 -43 -3 -43 -3 3 -92 3 -92 215 0 215 0 3 92 3 92 -43 3
-43 3 -5 425 -5 425 -1085 1 c-597 0 -1111 -2 -1143 -5z"/>
<path d="M287 263 c-11 -10 -8 -41 4 -49 6 -3 424 -6 928 -5 504 1 935 1 959
1 40 0 42 1 42 30 l0 30 -963 0 c-530 0 -967 -3 -970 -7z"/>
</g>
</svg>
